<?xml version="1.0" encoding="UTF-8" standalone="no"?>
<svg
   xmlns:dc="http://purl.org/dc/elements/1.1/"
   xmlns:cc="http://web.resource.org/cc/"
   xmlns:rdf="http://www.w3.org/1999/02/22-rdf-syntax-ns#"
   xmlns:svg="http://www.w3.org/2000/svg"
   xmlns="http://www.w3.org/2000/svg"
   xmlns:sodipodi="http://sodipodi.sourceforge.net/DTD/sodipodi-0.dtd"
   xmlns:inkscape="http://www.inkscape.org/namespaces/inkscape"
   version="1.0"
   width="579pt"
   height="579pt"
   viewBox="0 0 579 579"
   preserveAspectRatio="xMidYMid meet"
   id="svg2"
   sodipodi:version="0.32"
   inkscape:version="0.45.1"
   sodipodi:docname="skull.svg"
   inkscape:output_extension="org.inkscape.output.svg.inkscape"
   sodipodi:docbase="/home/henning/gefahrstoffbeauftragter/ghs_pictograms">
  <defs
     id="defs19" />
  <sodipodi:namedview
     inkscape:window-height="649"
     inkscape:window-width="772"
     inkscape:pageshadow="2"
     inkscape:pageopacity="0.0"
     guidetolerance="10.0"
     gridtolerance="10.0"
     objecttolerance="10.0"
     borderopacity="1.0"
     bordercolor="#666666"
     pagecolor="#ffffff"
     id="base"
     inkscape:zoom="0.60103627"
     inkscape:cx="361.875"
     inkscape:cy="361.875"
     inkscape:window-x="500"
     inkscape:window-y="0"
     inkscape:current-layer="svg2" />
  <metadata
     id="metadata4">
Created by potrace 1.8, written by Peter Selinger 2001-2007
<rdf:RDF>
  <cc:Work
     rdf:about="">
    <dc:format>image/svg+xml</dc:format>
    <dc:type
       rdf:resource="http://purl.org/dc/dcmitype/StillImage" />
  </cc:Work>
</rdf:RDF>
</metadata>
  <path
     style="fill:#ff0000;stroke:none"
     id="path8"
     d="M 147.65941,148.01233 L 6,289.67173 L 147.66886,431.34059 L 289.32827,573 L 431.01602,431.31224 L 572.70378,289.62449 L 431.06327,147.98398 C 353.16571,70.086424 289.40386,6.34347 289.37551,6.34347 C 289.34716,6.34347 225.57586,70.095873 147.65941,148.01233 z M 408.62189,170.42535 L 527.82103,289.62449 L 408.57465,408.87087 L 289.31882,528.1267 L 170.12913,408.87087 L 50.939444,289.61504 L 170.13858,170.41591 C 235.69574,104.85874 289.34716,51.22622 289.37551,51.22622 C 289.40386,51.22622 343.06473,104.86819 408.62189,170.42535 z " />
  <path
     style="fill:#000000;stroke:none"
     id="path10"
     d="M 289.11094,129.8419 C 278.06506,130.39939 267.31209,133.32858 256.19062,138.8279 C 253.063,140.37753 251.28659,141.45472 248.88655,143.25948 C 245.67389,145.67842 243.56676,147.58712 236.36662,154.64552 C 232.83269,158.10386 231.14132,159.69129 226.39793,164.00003 C 216.74105,172.75926 213.29216,176.19869 210.63699,179.71372 C 208.34089,182.74685 206.97078,185.56265 206.54558,188.13278 C 206.41329,188.94539 206.39439,189.48399 206.44164,191.20371 C 206.51723,193.93447 206.7818,195.90931 207.45268,198.63062 C 208.28419,201.96612 209.47477,205.14098 211.32677,208.88278 C 213.50004,213.27657 215.33315,216.2908 219.80252,222.79171 L 221.62618,225.45633 L 221.35216,227.56346 C 220.10489,236.95576 219.62299,245.42207 220.16159,248.75756 C 220.70963,252.18755 221.96634,255.23958 223.99788,258.11207 C 224.80104,259.24595 225.57586,260.15306 226.85148,261.45702 C 227.48456,262.09955 227.91921,262.58145 227.81528,262.53421 C 227.71134,262.47751 226.02941,261.69325 224.08292,260.77669 C 214.12367,256.12778 210.30628,254.25688 209.08736,253.41592 C 205.68572,251.07257 202.5581,247.56699 197.90919,240.86765 C 196.00049,238.11799 195.59419,237.5983 194.28077,236.24709 C 189.52793,231.38085 183.09316,228.65009 176.90406,228.89577 C 173.31344,229.02805 170.81891,230.05799 168.51335,232.3541 C 165.78259,235.06596 164.23295,239.18573 163.8361,244.77954 L 163.76995,245.70554 L 163.34475,246.00791 C 160.26437,248.13393 158.05331,250.68516 156.61706,253.73719 C 156.09737,254.86162 155.53043,256.61913 155.35089,257.67742 C 155.13357,258.94359 155.13357,268.47763 155.34145,269.97057 C 155.78555,273.10764 157.04227,275.69666 159.04545,277.63371 C 160.60454,279.1361 162.29591,280.05265 164.55422,280.61014 C 165.53692,280.84637 168.32437,280.90306 169.60944,280.70463 C 172.47248,280.26053 174.77804,279.41957 179.87105,276.96283 C 182.91363,275.48879 183.97192,275.02578 185.32312,274.59113 C 186.13574,274.33601 186.41921,274.28876 187.79876,274.22262 C 191.52167,274.05254 193.91226,274.61948 197.76746,276.58487 C 198.65566,277.03842 208.97397,282.26372 220.70018,288.19769 L 242.01712,298.9979 L 242.08327,299.4798 C 242.2061,300.43415 242.51792,301.69086 242.95257,303.01372 C 243.1888,303.76019 243.37778,304.37438 243.34943,304.39328 C 243.33053,304.41217 242.48012,304.81848 241.46908,305.30038 C 240.45804,305.79173 235.13825,308.31461 229.65783,310.93198 C 218.40407,316.28957 212.35671,319.15261 208.63381,320.87233 C 207.23535,321.52431 204.97704,322.5826 203.62584,323.22513 C 200.74389,324.58579 200.70609,324.59524 198.00368,324.61414 C 195.51859,324.62359 194.50755,324.41571 191.05867,323.14954 C 184.95461,320.90068 182.46952,320.22035 178.9167,319.8046 C 176.86627,319.55892 173.87093,319.57782 172.12287,319.85184 C 164.61091,321.00462 157.80763,325.24722 155.39814,330.28354 C 154.62332,331.88987 154.3493,333.16548 154.3493,335.11198 C 154.3493,338.6837 155.3131,341.21603 157.53361,343.44599 C 159.47066,345.41139 161.81401,346.77204 169.42046,350.37211 L 172.2646,351.71387 L 173.00163,355.41788 C 173.40793,357.45886 173.90873,360.01009 174.10716,361.08728 C 174.53236,363.41173 174.72134,364.1393 175.18435,365.20704 C 177.008,369.47799 181.3073,372.78514 186.46645,373.88122 C 187.54364,374.11745 187.84601,374.13635 189.59407,374.13635 C 191.2382,374.13635 191.6823,374.09855 192.52326,373.91902 C 196.08553,373.1631 199.42103,371.31109 202.34077,368.47639 C 204.26837,366.60549 205.66682,364.73459 206.64952,362.7125 C 207.32039,361.31405 207.57552,360.45419 207.92513,358.40376 C 208.58656,354.42573 209.84328,351.3926 211.89371,348.82247 C 212.56459,347.98151 214.29376,346.32794 215.17251,345.67596 C 216.79774,344.47593 217.68595,344.02238 224.41364,340.84752 C 226.75699,339.74199 235.68629,335.53718 244.25654,331.50246 L 259.84739,324.15114 L 261.35923,325.16218 C 265.15772,327.69451 269.02236,329.6977 274.68232,332.0505 C 280.83361,334.61118 286.6164,336.45373 290.74562,337.16241 C 292.3236,337.43643 294.56301,337.45533 295.89532,337.2191 C 299.92059,336.48208 303.92697,334.87575 313.0925,330.29299 C 319.03592,327.31655 321.25644,326.02204 324.4313,323.65979 C 325.02659,323.21568 325.55573,322.85662 325.61243,322.85662 C 325.72581,322.85662 366.96125,342.68062 369.04003,343.72946 C 371.36448,344.91059 372.90467,346.02557 374.55825,347.75474 C 377.35515,350.67448 378.82919,353.99108 379.66071,359.25417 C 379.85913,360.51089 380.1615,361.41799 380.78514,362.7125 C 381.75838,364.70624 383.12849,366.5488 385.00884,368.4008 C 387.88134,371.2355 391.31132,373.1442 394.93029,373.92847 C 395.77125,374.108 396.19646,374.13635 397.85003,374.13635 C 399.58865,374.13635 399.90991,374.108 400.97765,373.88122 C 402.55563,373.55051 403.57612,373.182 405.17301,372.39773 C 406.86438,371.55677 408.0266,370.72526 409.33057,369.42129 C 410.87075,367.88111 411.96684,366.16139 412.60937,364.27159 C 412.76055,363.82749 413.05347,362.55187 413.26135,361.43689 C 413.46923,360.32191 413.97947,357.67619 414.40468,355.55961 L 415.17005,351.71387 L 418.10869,350.32487 C 423.75919,347.6508 425.73403,346.61141 427.56714,345.36414 C 431.42233,342.72787 433.0948,339.63805 433.0948,335.10253 C 433.0948,332.86311 432.6507,331.24733 431.52627,329.32919 C 428.74826,324.64248 422.16231,320.84399 414.99997,319.8046 C 413.47868,319.57782 410.3983,319.57782 408.5274,319.8046 C 404.99347,320.22035 402.45169,320.91013 396.85789,322.97001 C 393.61688,324.16058 392.28457,324.5102 390.5743,324.63304 C 389.57271,324.69918 386.94588,324.54799 386.37894,324.38736 C 386.18052,324.33067 385.17892,323.88656 384.15843,323.38577 C 383.13794,322.89442 381.67334,322.19519 380.88908,321.84558 C 377.3646,320.2487 362.16116,313.03911 344.21751,304.45942 L 340.80642,302.83419 L 341.03319,301.96488 C 341.16548,301.49243 341.27887,301.09558 341.28832,301.09558 C 341.28832,301.08613 351.18142,296.07816 363.26669,289.9552 C 375.35196,283.8417 386.59627,278.14395 388.2593,277.29354 C 389.92232,276.45258 391.75543,275.58328 392.32237,275.36595 C 394.86415,274.38325 396.7445,274.09033 399.64534,274.22262 C 401.03434,274.28876 401.30836,274.32656 402.14933,274.60058 C 403.42494,275.01634 404.51158,275.48879 407.62975,276.99118 C 412.42039,279.29673 414.36688,280.03375 417.19213,280.61014 C 418.33546,280.84637 421.02843,280.89361 422.22845,280.70463 C 427.05689,279.93926 430.77035,276.2825 431.86643,271.20839 C 432.21604,269.57371 432.26329,268.69495 432.22549,263.21453 L 432.1877,257.92309 L 431.94202,256.93095 C 430.89318,252.6789 428.13408,248.77646 424.39227,246.22523 L 423.67415,245.73388 L 423.57021,244.45827 C 422.93713,237.14474 420.46149,232.47694 416.02991,230.21863 C 413.99837,229.17924 411.99518,228.79183 409.19828,228.89577 C 405.91003,229.0186 403.13202,229.72728 400.07055,231.22967 C 397.59491,232.43914 395.54447,233.89429 393.60743,235.79354 C 392.20898,237.16364 391.50975,238.03295 389.48767,240.91489 C 384.9049,247.4725 382.12689,250.64736 378.87644,253.03796 C 377.76146,253.86002 376.66537,254.46476 373.28263,256.08999 C 367.66992,258.78295 352.30585,265.95474 352.49483,265.78466 C 352.52318,265.76576 353.07122,265.32166 353.7232,264.80197 C 359.42095,260.22865 362.40683,255.17344 363.42732,248.3796 C 363.66355,246.80162 363.66355,240.8771 363.42732,238.31642 C 363.09661,234.71635 362.46353,230.40761 361.82099,227.23274 L 361.59422,226.11776 L 362.99267,224.06733 C 368.30301,216.26245 369.93768,213.62618 372.05426,209.44972 C 375.11574,203.39292 376.70317,198.18652 377.16617,192.7061 C 377.29846,191.05252 377.23231,188.54854 377.01499,187.57529 C 376.33466,184.48547 374.43541,181.23501 371.12826,177.49321 C 368.52033,174.54512 365.13759,171.3797 357.45556,164.71816 C 354.51692,162.16693 349.59399,157.77314 343.14032,151.95256 C 334.3811,144.04375 328.28649,139.61217 321.54936,136.24832 C 314.34922,132.64825 306.83726,130.62617 298.24812,129.98363 C 295.88587,129.81355 291.22751,129.73796 289.11094,129.8419 z M 296.41502,138.81845 C 303.88917,139.22476 310.33339,140.68935 316.36185,143.36342 C 323.03285,146.31151 329.29754,150.73364 338.27409,158.85033 C 343.25371,163.3575 349.10264,168.5639 351.69167,170.81276 C 357.89021,176.1798 360.26191,178.35307 363.07771,181.20666 C 366.92345,185.11855 368.65262,187.66978 368.88885,189.7958 C 368.97389,190.51393 368.8038,192.65885 368.54868,194.18959 C 368.02899,197.32666 366.74392,201.21965 365.20374,204.34726 C 364.70294,205.33941 364.599,205.50004 364.6368,205.19767 C 364.75963,204.27167 364.79743,198.65897 364.69349,197.51564 C 364.10765,191.14701 361.84934,187.22568 354.04447,179.05229 L 353.16571,178.12629 L 350.14203,181.01768 L 347.11835,183.90908 L 348.59239,185.48706 C 354.07281,191.34544 355.6319,193.70769 356.23663,197.07153 C 356.45396,198.28101 356.48231,202.82598 356.29333,204.15828 C 356.0949,205.50004 355.80198,206.8796 353.94998,215.16637 L 352.21136,222.97124 L 352.68381,224.85159 C 353.82714,229.39656 354.67755,234.48013 355.10275,239.30856 C 355.32008,241.81255 355.32953,245.95121 355.1122,247.29297 C 354.19565,252.90568 351.54993,256.46795 345.19075,260.65386 C 342.89465,262.15625 334.22046,267.43824 327.17151,271.62414 C 320.85013,275.36595 318.62961,277.46363 317.30675,280.88416 C 316.56973,282.81176 316.39965,284.3047 316.39965,288.80243 C 316.39965,291.52374 316.3713,292.33635 316.26736,292.69541 C 315.60593,294.88758 310.96648,298.26088 305.61834,300.43415 C 301.15841,302.24835 296.75518,303.16491 292.44644,303.16491 C 289.82906,303.16491 287.80698,302.90978 285.02897,302.22001 C 278.84932,300.69872 271.88541,297.14589 269.03181,294.06552 C 268.04912,292.99778 268.02077,292.91274 268.03022,290.79617 C 268.03967,289.81347 268.06802,288.5662 268.10581,288.01816 C 268.2003,286.6764 268.06802,284.39919 267.83179,283.18972 C 267.10422,279.38177 265.16717,276.75495 261.02851,273.9486 C 259.50722,272.91866 258.89304,272.5407 254.13074,269.75324 C 251.81574,268.40204 248.15897,266.20987 246.0046,264.88701 C 243.85023,263.56415 241.42184,262.07121 240.61867,261.57986 C 237.34932,259.56722 235.68629,258.3483 234.19335,256.83646 C 233.03112,255.66478 232.30355,254.67264 231.59488,253.32143 C 230.68777,251.58282 230.11138,249.51348 229.83736,247.10399 C 229.61059,245.06301 229.73342,240.30071 230.09248,237.18254 C 230.39485,234.48013 230.69722,232.95884 231.72716,228.82017 C 232.51143,225.62641 232.64371,224.70986 232.49253,223.31141 C 232.2752,221.29877 231.70826,218.50187 229.99799,211.05605 C 229.56334,209.12846 229.06254,206.89849 228.89246,206.09533 L 228.59009,204.63073 L 228.60899,201.89052 C 228.63734,197.95029 228.89246,196.08884 229.70508,193.98171 C 230.80116,191.14701 233.12561,188.02884 236.41387,185.00516 C 237.14144,184.33428 237.85956,183.62561 238.01075,183.43663 C 238.49265,182.82244 238.75722,182.11377 238.76667,181.42399 C 238.77612,180.68697 238.80446,180.73421 237.21703,178.81607 C 236.30048,177.71053 236.0926,177.5121 235.6296,177.29478 C 235.1666,177.0869 234.95872,177.0491 234.19335,177.0491 C 232.60592,177.0491 232.44529,177.14359 229.72397,179.81766 C 224.78215,184.665 221.86241,189.50289 220.83246,194.56755 C 220.39781,196.72192 220.29387,198.04478 220.23718,201.93777 L 220.18993,205.57563 L 220.66238,207.46543 C 220.92695,208.50482 221.13483,209.36468 221.12538,209.37413 C 221.07814,209.41193 219.63244,206.75676 218.90487,205.29216 C 216.33474,200.13301 214.97408,195.45576 214.77566,191.07142 C 214.71896,189.97534 214.73786,189.69187 214.89849,189.07768 C 215.49378,186.84772 217.37413,184.28704 221.53169,180.07278 C 224.04512,177.52155 225.94437,175.73569 232.16182,170.08519 C 237.54775,165.18116 237.90681,164.841 243.40613,159.47396 C 252.93072,150.17615 255.30242,148.38084 262.02066,145.33826 C 270.6098,141.44527 279.1139,139.3287 288.14714,138.8279 C 290.18812,138.71451 294.38348,138.71451 296.41502,138.81845 z M 179.48364,237.41876 C 182.87583,237.91956 186.39086,239.8944 188.78146,242.62516 C 189.14997,243.04092 190.2366,244.51496 191.19095,245.88507 C 193.19414,248.75756 194.9611,251.13871 196.20837,252.63165 C 199.34544,256.40181 202.39747,259.18926 205.3739,260.99402 C 207.42433,262.23184 215.65441,266.16262 232.49253,273.9108 C 236.15874,275.60217 239.76826,277.2652 240.52418,277.61481 L 241.89429,278.24789 L 241.92263,283.88895 C 241.93208,286.98822 241.92263,289.53 241.90373,289.53 C 241.88484,289.53 232.45473,284.75825 220.9553,278.92822 C 209.44642,273.09819 199.48717,268.10912 198.82574,267.8351 C 196.32176,266.79571 193.75163,266.13428 191.29489,265.89805 C 189.85864,265.76576 186.19243,265.85081 185.068,266.04923 C 182.62071,266.47444 181.08052,267.07918 175.27884,269.85718 C 171.15907,271.83202 169.30707,272.44621 167.43617,272.45566 C 166.56686,272.46511 166.31173,272.43676 165.86763,272.25723 C 164.79989,271.83202 164.16681,271.02886 163.7794,269.62096 C 163.58097,268.92173 163.57152,268.63826 163.53373,264.30117 C 163.49593,259.87904 163.55263,258.54673 163.7983,258.39554 C 163.8361,258.37665 163.88334,258.87744 163.91169,259.51053 C 163.94948,260.61606 163.96838,260.71055 164.2991,261.40033 C 165.12116,263.14839 166.82198,264.07439 168.74013,263.80982 C 170.05354,263.63029 171.27246,262.72319 171.8583,261.49482 L 172.16067,260.85228 L 172.16067,258.39554 C 172.15122,257.04434 172.13232,253.81278 172.11342,251.2143 C 172.06618,246.26303 172.11342,245.20474 172.49138,242.99367 C 173.02052,239.94165 174.02212,238.10854 175.46782,237.56995 C 176.42216,237.20144 177.72613,237.15419 179.48364,237.41876 z M 411.65502,237.46601 C 412.68496,237.76838 413.29915,238.33532 413.92278,239.56369 C 414.52752,240.75426 414.91492,242.38894 415.20784,244.94962 C 415.34958,246.18744 415.36848,247.0473 415.33068,250.97808 C 415.31178,253.50096 415.29288,256.77032 415.28344,258.25381 L 415.28344,260.94677 L 415.55746,261.49482 C 416.83307,264.06494 420.24416,264.66023 422.2568,262.66649 C 423.1828,261.74994 423.54186,260.78614 423.56076,259.19871 L 423.57021,258.20656 L 423.72139,258.63177 C 423.86313,259.00973 423.88203,259.63336 423.88203,263.87596 C 423.88203,268.03352 423.85368,268.78945 423.72139,269.37528 C 423.145,271.86982 421.60482,272.83362 418.91185,272.38007 C 417.05985,272.0777 415.35903,271.41627 410.8613,269.25245 C 407.02501,267.40044 405.42813,266.75791 403.56668,266.29491 C 402.14933,265.9453 401.35561,265.87915 398.6532,265.8697 C 396.52717,265.86025 395.79015,265.89805 394.92084,266.03034 C 392.73812,266.37995 390.44201,267.03193 388.43883,267.89179 C 387.86244,268.13746 377.13782,273.53284 364.60845,279.88257 C 352.07907,286.22285 341.80801,291.4198 341.77966,291.4198 C 341.74187,291.4198 341.73242,288.84022 341.74187,285.69371 L 341.77022,279.95816 L 344.65216,278.64475 C 360.05403,271.5958 373.21649,265.4634 378.33785,262.93106 C 382.23083,261.01292 383.89386,259.94518 386.18052,257.9042 C 389.44042,255.00335 392.09559,251.84739 396.14921,246.00791 C 397.04687,244.71339 398.07681,243.30549 398.42642,242.88029 C 401.05324,239.74322 405.17301,237.55105 408.9715,237.29593 C 410.28491,237.21089 410.8802,237.24868 411.65502,237.46601 z M 252.21259,278.34238 C 257.83475,281.65898 259.02532,282.64168 259.58281,284.47478 C 259.734,284.97558 259.74345,285.29685 259.70565,287.35673 C 259.61116,291.95839 259.64896,293.54582 259.88518,294.46238 C 260.43322,296.6262 261.586,298.48765 263.66478,300.56643 C 268.60661,305.49881 278.31073,309.8548 287.29673,311.15876 C 290.16923,311.57452 293.64646,311.65011 296.17879,311.35719 C 304.35218,310.39339 312.85628,307.0012 318.66741,302.39954 C 319.85798,301.45464 321.78558,299.50814 322.56985,298.4593 C 323.33522,297.43881 324.34626,295.43562 324.62973,294.39623 C 324.82816,293.68756 324.84706,293.35684 324.90375,289.24653 C 324.97934,284.52203 324.98879,284.43699 325.50849,283.40705 C 325.82975,282.76452 326.69906,281.91411 327.84239,281.10149 C 328.68335,280.49676 333.21887,277.71875 333.35116,277.71875 C 333.38895,277.71875 333.3984,282.36766 333.3795,288.03706 C 333.34171,299.442 333.38895,298.56324 332.72752,300.56643 C 332.08499,302.51293 330.1385,305.96181 328.43768,308.15398 C 325.99039,311.31939 322.70213,314.50371 319.2816,317.03604 C 316.70202,318.94474 314.41536,320.29594 310.47513,322.25189 C 301.2907,326.8063 295.56461,328.92288 293.06062,328.6961 C 290.04639,328.42208 283.60217,326.54173 277.94222,324.28342 C 269.646,320.96682 264.29786,317.63133 259.14816,312.55721 C 255.03784,308.50359 252.06141,304.10036 250.83304,300.28296 C 250.2472,298.42151 250.25665,298.73333 250.25665,287.48902 C 250.25665,281.85741 250.27555,277.2463 250.3039,277.2463 C 250.33224,277.2463 251.1921,277.73765 252.21259,278.34238 z M 345.45533,314.33362 C 359.45874,321.03297 373.95351,327.90239 377.53468,329.52762 C 378.39454,329.91503 379.96307,330.6615 381.03081,331.18119 C 383.96945,332.62689 385.06553,332.88201 388.87348,332.96705 C 393.11608,333.06154 394.65627,332.73083 401.62963,330.1607 C 404.49268,329.11186 406.57146,328.54492 409.0471,328.15751 C 409.4723,328.09137 410.68177,328.04412 411.78731,328.03467 C 413.49757,328.03467 413.92278,328.06302 414.85823,328.252 C 418.19373,328.93233 421.52922,330.55756 423.37178,332.41901 C 424.27888,333.33556 424.66629,334.00644 424.75133,334.80961 C 424.80803,335.40489 424.64739,336.48208 424.43952,336.89784 C 423.95762,337.82384 422.53082,338.82543 419.45989,340.37507 C 418.32601,340.94201 417.37166,341.40501 417.35277,341.37666 C 417.33387,341.35776 417.46615,340.63019 417.64569,339.77033 C 418.0142,338.01282 418.04254,337.54037 417.83467,336.72776 C 417.28662,334.65842 415.26454,333.30722 413.18576,333.62848 C 411.8251,333.83636 410.67232,334.66787 410.08649,335.85845 C 409.80302,336.45373 409.61404,337.2191 408.66914,341.78297 C 407.24234,348.63349 405.7116,356.22104 405.17301,359.14078 C 404.69111,361.72036 404.50213,362.2684 403.77455,363.14716 C 402.31941,364.92357 399.33352,366.09525 397.03742,365.77398 C 396.21535,365.67004 394.89249,365.25429 394.19327,364.89522 C 392.31292,363.94088 390.37587,362.24005 389.04356,360.38805 C 388.30654,359.35811 388.04197,358.69668 387.83409,357.34547 C 387.28605,353.79265 386.43564,351.05244 384.98994,348.20829 C 382.5143,343.31371 378.67801,339.39237 373.70784,336.69941 C 373.1409,336.38759 363.57851,331.76703 352.47593,326.42834 C 341.36391,321.08966 332.27397,316.69588 332.27397,316.67698 C 332.27397,316.64863 332.62358,316.21398 333.05824,315.71318 C 334.58898,313.92732 335.29765,313.02021 336.46933,311.32884 C 336.93233,310.65796 337.1591,310.41229 337.27249,310.44064 C 337.35753,310.46898 341.04264,312.21705 345.45533,314.33362 z M 248.03614,312.51942 C 248.95269,313.78558 250.35114,315.47695 251.62676,316.86596 C 252.28819,317.58408 252.80788,318.18882 252.79843,318.20771 C 252.77953,318.21716 245.80617,321.50542 237.31152,325.51179 C 214.95519,336.03798 214.38825,336.312 213.25437,336.96398 C 208.7283,339.56245 205.3361,342.9452 202.91716,347.25394 C 201.43367,349.89966 200.24309,353.40524 199.7045,356.71239 C 199.40213,358.60219 199.34544,358.81952 198.90134,359.58489 C 197.87139,361.38964 195.84931,363.38338 193.85557,364.55506 C 191.36103,366.00076 188.91374,366.19919 186.40031,365.1409 C 184.33098,364.27159 182.92308,362.65581 182.56401,360.72821 C 181.72305,356.29663 181.42069,354.747 180.65532,350.9485 C 178.26472,339.22229 177.68833,336.55767 177.39541,335.95294 C 176.80012,334.72457 175.66624,333.87416 174.29614,333.63793 C 171.91499,333.23162 169.63778,335.03638 169.49605,337.45533 C 169.45825,338.10731 169.5055,338.50417 169.78897,339.79868 C 169.9685,340.64909 170.10078,341.36721 170.08188,341.38611 C 170.02519,341.44281 166.46292,339.61915 165.40463,338.99551 C 164.11957,338.23015 163.24081,337.42698 162.93844,336.7561 C 162.75891,336.34035 162.72111,336.09467 162.71167,335.31041 C 162.71167,334.45999 162.74001,334.30881 162.98569,333.79856 C 163.3353,333.07099 164.69596,331.70089 165.73535,331.02056 C 167.50231,329.86778 170.05354,328.80949 172.33075,328.29925 C 173.38904,328.06302 173.65361,328.04412 175.56231,328.04412 C 176.79068,328.04412 177.9529,328.09137 178.39701,328.15751 C 180.98603,328.57327 182.93253,329.10241 186.19243,330.30244 C 192.29648,332.5513 194.19573,332.9954 197.74856,332.9954 C 200.52656,332.9954 202.48251,332.76862 203.95655,332.27728 C 204.34396,332.14499 205.51564,331.61585 206.55503,331.1056 C 207.59442,330.59535 209.10626,329.88668 209.90942,329.51817 C 213.28271,327.98743 226.1617,321.89282 239.67377,315.42971 C 243.90692,313.40762 247.3936,311.7446 247.42195,311.7446 C 247.4503,311.7446 247.72432,312.09421 248.03614,312.51942 z " />
  <path
     style="fill:#000000;stroke:none"
     id="path12"
     d="M 242.13996,224.76655 C 240.18402,225.28625 238.55879,226.93037 237.91626,229.00915 C 237.65168,229.88791 237.67058,232.00449 237.9635,233.30845 C 238.72887,236.78568 240.32575,240.53693 242.36674,243.6551 C 245.61719,248.62528 249.68026,251.64896 254.43311,252.60331 C 255.34021,252.78284 255.79376,252.82063 257.43789,252.82063 C 259.46943,252.82063 260.25369,252.72614 261.73719,252.34818 C 265.21442,251.44108 268.39873,249.12608 271.52635,245.21419 C 272.93425,243.44723 275.65556,239.77157 276.45873,238.55264 C 277.6304,236.75733 278.68869,234.44233 279.0761,232.8171 C 279.63359,230.4832 278.95326,228.71624 276.88393,227.15715 C 275.47603,226.09886 273.4067,225.20121 271.45076,224.8138 C 270.51531,224.61537 270.26018,224.61537 256.56858,224.62482 C 244.73843,224.62482 242.57461,224.64372 242.13996,224.76655 z " />
  <path
     style="fill:#000000;stroke:none"
     id="path14"
     d="M 312.1476,224.8138 C 308.73651,225.53192 305.82622,227.34613 304.81518,229.38711 C 304.47501,230.06744 304.44667,230.19973 304.41832,231.08793 C 304.37107,232.17457 304.59785,233.20451 305.21203,234.7636 C 306.06244,236.90852 306.98845,238.41091 309.88929,242.285 C 313.39487,246.96225 315.09569,248.76701 317.47684,250.33555 C 320.27374,252.1781 323.29742,252.98127 326.87859,252.83953 C 330.95111,252.68835 334.51338,251.10092 337.74494,248.00164 C 341.19383,244.69449 344.24585,239.21407 345.51202,234.02657 C 346.02227,231.93834 346.09786,230.36036 345.7388,229.0564 C 345.2002,227.04376 343.43324,225.26735 341.4773,224.7571 C 340.9954,224.63427 339.20009,224.61537 326.98253,224.62482 C 313.45156,224.62482 313.01691,224.63427 312.1476,224.8138 z " />
  <path
     style="fill:#000000;stroke:none"
     id="path16"
     d="M 292.35195,255.83487 C 290.71727,256.15613 289.72512,256.75142 288.05265,258.43334 C 285.58646,260.91843 284.66991,262.69484 282.94074,268.34534 C 281.77851,272.15329 281.39111,273.08874 280.5029,274.25097 C 278.53751,276.81165 277.46977,279.37232 277.46977,281.4889 C 277.46977,283.07633 277.87608,284.08738 278.92492,285.14566 C 279.44461,285.66536 279.77533,285.90158 280.39896,286.1945 C 281.77851,286.85593 283.53603,287.1394 285.50142,287.03546 C 287.69359,286.91263 288.63849,286.63861 289.98025,285.75985 C 291.43539,284.8055 292.20076,284.55038 293.92993,284.45589 C 295.82918,284.3614 296.84022,284.60707 298.23867,285.53307 C 299.80721,286.56301 300.78045,286.85593 302.94427,286.95042 C 305.00416,287.04491 306.53489,286.70475 307.8672,285.88269 C 309.65306,284.7677 310.82474,282.61333 310.7019,280.65739 C 310.66411,279.97706 310.59796,279.75973 310.26725,279.0983 C 310.05937,278.68255 309.39794,277.6715 308.79321,276.86834 C 306.82781,274.24152 306.59159,273.77852 305.48606,270.27294 C 304.31438,266.53113 303.63405,264.74527 302.57576,262.63815 C 300.71431,258.93414 298.40875,256.62858 295.84808,255.9388 C 295.07326,255.73093 293.19291,255.67423 292.35195,255.83487 z " />
</svg>
