<?xml version="1.0" encoding="UTF-8" standalone="no"?>
<svg
   xmlns:dc="http://purl.org/dc/elements/1.1/"
   xmlns:cc="http://web.resource.org/cc/"
   xmlns:rdf="http://www.w3.org/1999/02/22-rdf-syntax-ns#"
   xmlns:svg="http://www.w3.org/2000/svg"
   xmlns="http://www.w3.org/2000/svg"
   xmlns:sodipodi="http://sodipodi.sourceforge.net/DTD/sodipodi-0.dtd"
   xmlns:inkscape="http://www.inkscape.org/namespaces/inkscape"
   version="1.0"
   width="579pt"
   height="579pt"
   viewBox="0 0 579 579"
   preserveAspectRatio="xMidYMid meet"
   id="svg2"
   sodipodi:version="0.32"
   inkscape:version="0.45.1"
   sodipodi:docname="bottle.svg"
   inkscape:output_extension="org.inkscape.output.svg.inkscape"
   sodipodi:docbase="/home/henning/gefahrstoffbeauftragter/ghs_pictograms">
  <defs
     id="defs13" />
  <sodipodi:namedview
     inkscape:window-height="649"
     inkscape:window-width="772"
     inkscape:pageshadow="2"
     inkscape:pageopacity="0.0"
     guidetolerance="10.0"
     gridtolerance="10.0"
     objecttolerance="10.0"
     borderopacity="1.0"
     bordercolor="#666666"
     pagecolor="#ffffff"
     id="base"
     inkscape:zoom="0.60103627"
     inkscape:cx="361.875"
     inkscape:cy="361.875"
     inkscape:window-x="500"
     inkscape:window-y="0"
     inkscape:current-layer="svg2" />
  <metadata
     id="metadata4">
Created by potrace 1.8, written by Peter Selinger 2001-2007
<rdf:RDF>
  <cc:Work
     rdf:about="">
    <dc:format>image/svg+xml</dc:format>
    <dc:type
       rdf:resource="http://purl.org/dc/dcmitype/StillImage" />
  </cc:Work>
</rdf:RDF>
</metadata>
  <path
     style="fill:#ff0000;stroke:none"
     id="path8"
     d="M 147.65941,148.01233 L 6,289.67173 L 147.66886,431.34059 L 289.32827,573 L 431.01602,431.31224 L 572.70378,289.62449 L 431.06327,147.98398 C 353.16571,70.086424 289.40386,6.34347 289.37551,6.34347 C 289.34716,6.34347 225.57586,70.095873 147.65941,148.01233 z M 408.62189,170.42535 L 527.82103,289.62449 L 408.57465,408.87087 L 289.31882,528.1267 L 170.12913,408.87087 L 50.948893,289.60559 L 170.13858,170.41591 C 235.69574,104.85874 289.34716,51.22622 289.37551,51.22622 C 289.40386,51.22622 343.06473,104.86819 408.62189,170.42535 z " />
  <path
     style="fill:#000000;stroke:none"
     id="path10"
     d="M 348.0538,230.52099 C 347.09945,230.70053 163.04238,280.10935 162.38095,280.36447 C 157.1651,282.4149 153.65952,288.1221 152.60124,296.28603 C 152.38391,297.93961 152.27997,300.95384 152.37446,302.88144 C 152.52564,306.00906 152.9225,308.67367 153.68787,311.78239 C 156.80604,324.44405 164.68651,334.37495 173.11501,336.26475 C 174.09771,336.48208 176.42216,336.54822 177.40486,336.36869 C 178.23637,336.22696 360.62097,287.31893 362.47297,286.74254 C 365.99745,285.64646 368.66207,283.18972 370.60856,279.22114 C 371.6952,277.01952 372.34718,274.88405 372.90467,271.76588 C 373.34877,269.30914 373.72673,268.25085 374.77557,266.66342 C 376.05119,264.72637 378.2717,263.08225 380.51112,262.42082 C 380.87963,262.31688 389.96956,259.86959 400.72253,256.98764 C 411.47549,254.09625 420.49928,251.63006 420.7922,251.49777 C 425.13874,249.50404 426.72617,243.15431 424.22219,237.79672 C 422.84264,234.85809 420.3481,232.68482 417.70238,232.11788 C 416.80472,231.9289 415.43462,231.94779 414.52752,232.16512 C 414.11176,232.26906 405.14466,234.66911 394.59013,237.49436 C 384.04504,240.32906 375.17243,242.70076 374.88896,242.7669 C 374.5488,242.85194 373.80233,242.89918 372.71569,242.89918 C 370.90148,242.88974 370.21171,242.7669 368.74711,242.17161 C 366.914,241.41569 365.76123,240.50859 363.89977,238.33532 C 361.11232,235.08486 358.59888,233.03443 355.80198,231.71157 C 354.60196,231.15408 353.298,230.72887 352.16412,230.53044 C 351.12473,230.35091 349.0365,230.34146 348.0538,230.52099 z " />
</svg>
